<svg width="84" height="96" viewBox="0 0 84 96" fill="none" xmlns="http://www.w3.org/2000/svg">
<path d="M83.7727 33.8636H63.8636C63.5 31.2879 62.7576 29 61.6364 27C60.5152 24.9697 59.0758 23.2424 57.3182 21.8182C55.5606 20.3939 53.5303 19.303 51.2273 18.5455C48.9545 17.7879 46.4848 17.4091 43.8182 17.4091C39 17.4091 34.803 18.6061 31.2273 21C27.6515 23.3636 24.8788 26.8182 22.9091 31.3636C20.9394 35.8788 19.9545 41.3636 19.9545 47.8182C19.9545 54.4545 20.9394 60.0303 22.9091 64.5455C24.9091 69.0606 27.697 72.4697 31.2727 74.7727C34.8485 77.0758 38.9848 78.2273 43.6818 78.2273C46.3182 78.2273 48.7576 77.8788 51 77.1818C53.2727 76.4849 55.2879 75.4697 57.0455 74.1364C58.803 72.7727 60.2576 71.1212 61.4091 69.1818C62.5909 67.2424 63.4091 65.0303 63.8636 62.5455L83.7727 62.6364C83.2576 66.9091 81.9697 71.0303 79.9091 75C77.8788 78.9394 75.1364 82.4697 71.6818 85.5909C68.2576 88.6818 64.1667 91.1364 59.4091 92.9545C54.6818 94.7424 49.3333 95.6364 43.3636 95.6364C35.0606 95.6364 27.6364 93.7576 21.0909 90C14.5758 86.2424 9.42424 80.803 5.63636 73.6818C1.87879 66.5606 -4.76837e-07 57.9394 -4.76837e-07 47.8182C-4.76837e-07 37.6667 1.90909 29.0303 5.72727 21.9091C9.54545 14.7879 14.7273 9.36364 21.2727 5.63637C27.8182 1.87879 35.1818 9.53674e-07 43.3636 9.53674e-07C48.7576 9.53674e-07 53.7576 0.757577 58.3636 2.27273C63 3.78788 67.1061 6 70.6818 8.90909C74.2576 11.7879 77.1667 15.3182 79.4091 19.5C81.6818 23.6818 83.1364 28.4697 83.7727 33.8636Z" fill="black"/>
</svg>
